<?xml version="1.0" standalone="no"?>
<!DOCTYPE svg PUBLIC "-//W3C//DTD SVG 20010904//EN"
 "http://www.w3.org/TR/2001/REC-SVG-20010904/DTD/svg10.dtd">
<svg version="1.0" xmlns="http://www.w3.org/2000/svg"
 width="500.000000pt" height="500.000000pt" viewBox="0 0 500.000000 500.000000"
 preserveAspectRatio="xMidYMid meet">
<metadata>
Created by potrace 1.14, written by Peter Selinger 2001-2017
</metadata>
<g transform="translate(0.000000,500.000000) scale(0.100000,-0.100000)"
fill="#000000" stroke="none">
<path d="M2389 4876 c-2 -2 -35 -6 -74 -9 -38 -3 -79 -8 -90 -10 -11 -3 -42
-8 -70 -11 -86 -12 -325 -76 -440 -118 -538 -197 -980 -572 -1273 -1080 -167
-289 -273 -617 -310 -963 -13 -119 -6 -465 12 -585 107 -709 491 -1314 1081
-1699 274 -180 648 -327 933 -366 20 -3 46 -7 57 -10 124 -26 546 -27 680 -1
11 2 42 7 69 10 112 16 329 74 456 123 187 72 360 164 535 284 320 218 605
546 780 899 41 81 106 227 110 244 1 6 5 18 8 26 40 97 99 330 122 480 23 155
27 518 6 655 -7 44 -14 91 -16 105 -2 14 -13 66 -24 115 -158 726 -650 1349
-1321 1672 -225 108 -445 173 -770 228 -38 7 -455 16 -461 11z"/>
</g>
</svg>
